<svg xmlns="http://www.w3.org/2000/svg" viewBox="0 0 64 64" role="img" aria-hidden="true">
  <defs>
    <linearGradient id="sdl3Gradient" x1="0%" y1="0%" x2="100%" y2="100%">
      <stop offset="0%" stop-color="#1b83ff"/>
      <stop offset="100%" stop-color="#0c4da2"/>
    </linearGradient>
  </defs>
  <rect x="6" y="8" width="52" height="48" rx="12" fill="url(#sdl3Gradient)"/>
  <path d="M18 24c0-3.314 2.686-6 6-6h6v6h-5.5a1.5 1.5 0 0 0 0 3H30c3.314 0 6 2.686 6 6s-2.686 6-6 6h-6v-6h5.5a1.5 1.5 0 1 0 0-3H24c-3.314 0-6-2.686-6-6zm21-6h7c4.418 0 8 3.582 8 8v5c0 4.418-3.582 8-8 8h-7zm6 6v9h1c1.105 0 2-.895 2-2v-5c0-1.105-.895-2-2-2zm-5 23h14v4H40z" fill="#fff"/>
</svg>
